<?xml version="1.0" encoding="UTF-8"?>
<svg id="Layer_2" data-name="Layer 2" xmlns="http://www.w3.org/2000/svg" viewBox="0 0 150.85 129.41">
  <defs>
    <style>
      .cls-1 {
        fill: #fff;
      }
    </style>
  </defs>
  <g id="Layer_1-2" data-name="Layer 1">
    <g>
      <path class="cls-1" d="M78.7,78.48l29.79-51.43h-36.69c2.02,3.99,4.27,7.97,6.71,11.72h9.18l-9.17,15.51L54.02,12.1h49.18l-6.43,11.16h13.99L124,0H33.21l45.49,78.48ZM108.87,20.33c-.33.17-1.75.15-2.18.1-.26-.04-.33.1-.27-.28l8.5-15.04H42.29l36.41,63.16,20.53-35.93h-20.91c-.14,0-1.01-1.81-1.22-2.08h26.1l-24.78,42.36L38.32,3.03h80.58l-10.03,17.3Z"/>
      <polygon class="cls-1" points="86.17 104.21 91.47 104.21 91.47 77.35 77.94 95.69 64.8 77.54 64.8 104.21 69.72 104.21 69.72 92.86 77.75 104.01 86.17 92.29 86.17 104.21"/>
      <path class="cls-1" d="M14.49,94.37h6.43c-2.12,6.63-11.58,6.53-14.47.38-4.59-9.73,8.39-17.6,14.38-8.34.39.04,3.31-3.19,3.85-3.67-5.95-8.46-19.32-6.99-23.45,2.42-4.91,11.19,5.96,22.99,17.29,18.43,3.45-1.39,7.33-5.82,7.33-9.7v-3.88h-11.35v4.35Z"/>
      <polygon class="cls-1" points="121.35 83.4 121.35 78.49 103.76 78.49 103.76 104.21 121.92 104.21 121.92 99.29 108.87 99.29 108.87 93.81 120.03 93.81 120.03 88.89 108.87 88.89 108.87 83.4 121.35 83.4"/>
      <path class="cls-1" d="M56.29,104.21l-11.73-27.05-11.91,27.05h5.01l2.17-4.83c2.83-.14,5.75-.18,8.54.02l1.87,4.81h6.05ZM41.73,94.94l2.36-6.05,2.36,6.05h-4.72Z"/>
      <path class="cls-1" d="M147.44,90.7c-1.72-1.1-7.1-2.61-7.65-4.45-1.04-3.48,3.24-3.72,5.59-3.13,1.39.35,2.48,1.23,3.77,1.6.09-.82,1.84-3.25,1.69-3.83-.15-.6-2.88-1.76-3.53-1.97-4.85-1.56-11.59-.56-12.85,5.19-.79,3.6.67,6.26,3.75,8.07,2.08,1.22,9.13,2.76,6.77,6.42-1.76,2.72-7.62.8-9.7-.82-.35.57-2.38,3.76-2.16,4.13.06.1,1.83,1.06,2.12,1.19,6.7,3.09,16.51,1.58,15.43-7.67-.23-1.96-1.58-3.7-3.21-4.73Z"/>
      <path class="cls-1" d="M39.64,122.36v2.08h3.03c-1.09,3.32-5.95,2.9-7.06-.22-1.68-4.74,4.5-7.9,7.15-3.56,1.22-1.47,2.75-1.58.75-3.21-4.72-3.85-12.11.38-10.82,6.66,1.6,7.8,13.66,6.68,12.43-1.74h-5.49Z"/>
      <path class="cls-1" d="M69.49,116.55c-8.16.9-7.36,13.86,1.82,12.79,7.94-.92,6.77-13.73-1.82-12.79ZM70.74,126.89c-5.08.61-5.73-7.12-1.26-7.89,5.26-.89,6.33,7.27,1.26,7.89Z"/>
      <path class="cls-1" d="M89.77,122.64v-.27c1.36-.63,1.52-2.59.98-3.92-.35-.9-1.94-1.64-2.78-1.76-1.51-.21-3.43-.07-5.01,0v12.67h4.63c.15,0,1.28-.29,1.53-.37,3.17-1.01,3.44-4.71.65-6.35ZM85.42,119.12l1.93.11c.53.03.94.56.94,1.21s-.43,1.19-.96,1.2l-1.91.07v-2.59ZM87.74,126.73l-2.32.06v-2.59l2.34.11c.65.03,1.15.57,1.15,1.21s-.52,1.19-1.17,1.21Z"/>
      <path class="cls-1" d="M101.68,116.78c-.75,1.35-1.47,3.23-2.11,4.7-1.13,2.58-2.26,5.24-3.18,7.88.57-.11,2.06.19,2.46-.09.31-.2.75-2.3,1.07-2.38.65.12,3.82-.18,4.05.13.27.36.82,2.27.93,2.34.21.14,2.35-.1,2.84,0l-5.58-13.05c-.35-.05-.37.25-.48.47ZM100.74,124.63l1.23-2.64,1.04,2.64h-2.27Z"/>
      <path class="cls-1" d="M52.88,116.69h-2.65v12.39s.26.28.28.28h8.23v-2.65h-5.86v-10.02Z"/>
      <path class="cls-1" d="M121.92,126.71h-5.86v-10.02h-2.65v12.67h8.23c.48,0,.23-2.24.28-2.65Z"/>
    </g>
  </g>
</svg>