<?xml version="1.0" encoding="UTF-8"?>
<svg id="Layer_2" data-name="Layer 2" xmlns="http://www.w3.org/2000/svg" viewBox="0 0 615.31 136.07">
  <defs>
    <style>
      .cls-1 {
        fill: #fff;
      }
    </style>
  </defs>
  <g id="Layer_1-2" data-name="Layer 1">
    <g>
      <path class="cls-1" d="M208.15,84.03c0,6.53-2.38,11.66-7.11,15.36s-11.27,5.58-19.6,5.58-15.16-1.29-20.46-3.88v-11.34c3.36,1.58,6.94,2.82,10.71,3.71,3.77.91,7.3,1.36,10.57,1.36,4.78,0,8.29-.91,10.57-2.7s3.41-4.24,3.41-7.28c0-2.75-1.03-5.07-3.12-6.99-2.09-1.91-6.39-4.16-12.9-6.77-6.73-2.7-11.46-5.82-14.22-9.29-2.76-3.47-4.13-7.66-4.13-12.56,0-6.13,2.19-10.94,6.56-14.46,4.37-3.52,10.23-5.27,17.58-5.27s14.08,1.53,21.06,4.62l-3.82,9.79c-6.56-2.75-12.39-4.12-17.53-4.12-3.89,0-6.85.84-8.86,2.54-2.02,1.7-3.03,3.92-3.03,6.7,0,1.91.41,3.54,1.2,4.91.82,1.36,2.14,2.63,3.99,3.85,1.85,1.2,5.16,2.8,9.97,4.76,5.4,2.25,9.37,4.33,11.89,6.27,2.52,1.94,4.37,4.14,5.55,6.58,1.18,2.44,1.75,5.31,1.75,8.64l-.02-.02Z"/>
      <path class="cls-1" d="M486.8,84.03c0,6.53-2.38,11.66-7.11,15.36-4.73,3.71-11.27,5.58-19.6,5.58s-15.15-1.29-20.46-3.88v-11.34c3.36,1.58,6.94,2.82,10.71,3.71,3.77.91,7.3,1.36,10.57,1.36,4.78,0,8.29-.91,10.57-2.7s3.41-4.24,3.41-7.28c0-2.75-1.03-5.07-3.12-6.99-2.09-1.91-6.39-4.16-12.9-6.77-6.73-2.7-11.46-5.82-14.22-9.29-2.76-3.47-4.13-7.66-4.13-12.56,0-6.13,2.19-10.94,6.55-14.46,4.37-3.52,10.23-5.27,17.58-5.27s14.08,1.53,21.06,4.62l-3.82,9.79c-6.56-2.75-12.4-4.12-17.54-4.12-3.89,0-6.85.84-8.86,2.54-2.02,1.7-3.03,3.92-3.03,6.7,0,1.91.41,3.54,1.2,4.91.82,1.36,2.14,2.63,3.99,3.85,1.85,1.2,5.16,2.8,9.97,4.76,5.4,2.25,9.37,4.33,11.89,6.27,2.52,1.94,4.37,4.14,5.55,6.58,1.18,2.44,1.75,5.31,1.75,8.64l-.02-.02Z"/>
      <path class="cls-1" d="M262.2,103.96h-11.89v-34.25c0-4.26-.82-7.42-2.43-9.52-1.61-2.08-4.13-3.14-7.57-3.14-4.56,0-7.93,1.48-10.06,4.45-2.14,2.97-3.19,7.9-3.19,14.79v27.66h-11.84v-55.55h9.27l1.66,7.28h.6c1.54-2.63,3.8-4.69,6.73-6.13,2.93-1.44,6.17-2.15,9.7-2.15,8.58,0,14.24,2.92,17.03,8.74h.82c1.66-2.75,3.96-4.88,6.97-6.44,2.98-1.53,6.41-2.32,10.28-2.32,6.65,0,11.51,1.68,14.53,5.03,3.05,3.35,4.56,8.45,4.56,15.32v36.21h-11.84v-34.25c0-4.26-.82-7.42-2.45-9.53-1.63-2.08-4.16-3.13-7.59-3.13-4.61,0-7.97,1.44-10.11,4.28-2.14,2.87-3.19,7.25-3.19,13.19v29.44l.02.02Z"/>
      <path class="cls-1" d="M392.76,47.41c2.38,0,4.35.17,5.88.5v9.43h-6.39c-4.73,0-8.57,2.49-11.51,5.58-2.93,3.09-4.42,7.08-4.42,11.99v29.03h-11.84v-55.55h9.27l1.56,9.79h.6c1.85-3.3,4.25-5.94,7.23-7.87,2.98-1.94,6.17-2.92,9.61-2.92v.02Z"/>
      <path class="cls-1" d="M424.01,95.42c2.88,0,5.79-.45,8.67-1.36v8.88c-1.32.57-3,1.05-5.06,1.44-2.07.38-4.2.57-6.44.57-11.22,0-16.84-5.89-16.84-17.69v-51.19h11.89v12.35h15.87v8.93h-15.87v29.72c0,2.85.72,4.95,2.14,6.29,1.42,1.36,3.29,2.03,5.62,2.03l.02.02Z"/>
      <path class="cls-1" d="M542.45,76.08c0,9.07-2.33,16.15-7.01,21.25-4.66,5.1-11.17,7.63-19.5,7.63-5.21,0-9.8-1.17-13.81-3.52-3.99-2.35-7.06-5.7-9.22-10.1-2.16-4.38-3.22-9.48-3.22-15.27,0-9,2.33-16.03,6.96-21.08,4.64-5.05,11.17-7.59,19.6-7.59s14.44,2.58,19.14,7.75c4.71,5.17,7.06,12.13,7.06,20.92ZM501.88,76.08c0,12.83,4.76,19.24,14.27,19.24s14.12-6.41,14.12-19.24-4.73-19.03-14.22-19.03c-4.97,0-8.58,1.65-10.81,4.93-2.23,3.28-3.36,7.99-3.36,14.12v-.02Z"/>
      <path class="cls-1" d="M589.43,57.34h-24.23v46.6h-11.89v-46.6h-9.18v-5.53l9.18-3.61v-3.61c0-6.56,1.54-11.42,4.64-14.6,3.1-3.16,7.81-4.74,14.17-4.74,4.16,0,7.49.69,11.1,2.06l-2.81,8.93c-2.62-.93-4.85-1.41-7.49-1.41s-4.63.84-5.86,2.49-1.85,4.14-1.85,7.47v3.61h24.23v8.95Z"/>
      <path class="cls-1" d="M606.64,95.42c2.88,0,5.79-.45,8.67-1.36v8.88c-1.32.57-3,1.05-5.07,1.44-2.07.38-4.2.57-6.44.57-11.22,0-16.84-5.89-16.84-17.69v-29.94h-5.86v-5.22l5.81-2.61,2.5-13.45h9.44v12.35h15.88v8.93h-15.88v29.72c0,2.85.72,4.95,2.14,6.29,1.42,1.36,3.29,2.03,5.62,2.03l.02.05Z"/>
      <path class="cls-1" d="M344.36,48.42l-1.2,7.18h-.5c-3.96-5.46-9.58-8.18-16.84-8.18s-12.47,2.58-16.41,7.73c-3.94,5.17-5.91,12.21-5.91,21.13s1.95,16.08,5.84,21.11c3.89,5.03,9.32,7.56,16.29,7.56,7.4,0,12.92-2.75,16.57-8.28h.46l-.36,6.87v.41h11.89v-55.55h-9.82v.02ZM342.85,78.35c-.19,6.13-1.39,10.53-3.55,13.19-2.16,2.66-5.67,4-10.52,4-8.74,0-13.09-6.37-13.09-19.12,0-6.32,1.11-11.13,3.29-14.41,2.19-3.28,5.4-4.93,9.61-4.93,5.07,0,8.72,1.53,10.93,4.6,2.23,3.06,3.34,7.95,3.34,14.65v2.06-.02Z"/>
      <path class="cls-1" d="M120.48,79.43v5.7c0,11.2-5.86,20.99-15.61,26.4q-.22-.17-.43-.36c.94-2.01,2.43-6.06,2.43-13.02,0-14.65-12.71-22.97-22.12-26.83l-31.23-12.85c-4.64-1.91-8.98-6.58-6.87-12.52,3.55-9.96,16.02-10.46,25.97-5.86,13.96,6.44,25.32,11.97,32.83,15.56,9.18,4.38,15.01,13.64,15.01,23.79h.02Z"/>
      <path class="cls-1" d="M4.28,106.04c0-6.46,9.01-10.84,14.87-10.84,13.52,0,21.71,12.28,40.52,12.28,17.1,0,26.83-10.77,26.83-21.32,0-5.65-2.79-8.62-4.71-10.46l.29-.48c8.55,3.47,19.82,10.55,19.82,22.3,0,10.98-4.83,20.41-17.46,27.79-1.08.65-7.78,4.31-13.79,7.63-7.69,4.26-17.08,4.16-24.67-.29L6.08,109.34c-1.08-.55-1.8-1.68-1.8-2.97v-.34Z"/>
      <path class="cls-1" d="M116.64,31.64c0,3.85-4.4,12.21-14,12.21-13.09,0-26.35-15.51-44.32-15.51-22.41,0-37.04,17.25-37.04,37.48,0,5.86,1.85,14.24,6.17,21.35l-.38.38c-2.38-1.17-5.33-2.44-12.03-5.72C5.04,76.94,0,67.34,0,58.04v-8.33c0-11.77,6.41-22.64,16.77-28.34L50.01,3.09c7.71-4.26,17.1-4.09,24.69.38l40.26,24.29c1.03.67,1.71,1.82,1.71,3.14v.74h-.02Z"/>
      <path class="cls-1" d="M62.02,73.44s-12.66-5.05-16.81-6.87c-10.71-4.69-13.52-15.17-11.82-21.42l-.5-.26c-3.8,4.88-6.53,11.37-6.53,20.56,0,15.12,10.59,33.41,30.96,33.41,7.52,0,13.64-5.86,13.64-13.11,0-5.65-3.84-10.24-8.91-12.3h-.02Z"/>
    </g>
  </g>
</svg>