<?xml version="1.0" encoding="UTF-8"?>
<svg id="Layer_2" data-name="Layer 2" xmlns="http://www.w3.org/2000/svg" viewBox="0 0 536 219.18">
  <defs>
    <style>
      .cls-1 {
        fill: #fff;
        fill-rule: evenodd;
      }
    </style>
  </defs>
  <g id="Layer_1-2" data-name="Layer 1">
    <g id="Symbols">
      <g id="Logo">
        <g>
          <path id="Fill-1" class="cls-1" d="M.77,139.16v-11.07h29.21v12.88c0,11.79,4.56,17.69,13.66,17.69h.12c9.02,0,13.54-5.88,13.54-17.63,0-6.72-1.94-13.01-5.85-18.89-3.89-5.88-8.55-11.25-13.98-16.13l-14.64-15.11c-6.05-5.29-11.11-11.84-15.19-19.64-4.08-7.81-6.12-16.46-6.12-25.95,0-14.6,3.85-25.8,11.55-33.6C20.77,3.9,31.23,0,44.44,0s23.36,3.9,30.44,11.7c7.08,7.8,10.63,19,10.63,33.59v5.79h-26.94v-7.55c0-11.83-4.76-17.75-14.29-17.75s-14.29,5.92-14.29,17.76c0,4.95,1.04,9.68,3.11,14.17,2.07,4.49,4.76,8.54,8.07,12.15,3.3,3.61,6.95,7.18,10.93,10.7,3.98,3.53,7.91,7.23,11.79,11.09,3.88,3.86,7.46,7.99,10.75,12.4,3.29,4.4,5.96,9.61,8.03,15.61,2.07,6.01,3.1,12.53,3.1,19.59,0,14.56-3.63,25.73-10.88,33.51-7.25,7.78-17.48,11.68-30.7,11.68s-23.76-3.9-31.62-11.7c-7.86-7.8-11.79-19-11.79-33.6"/>
          <path id="Fill-4" class="cls-1" d="M130.4,88.96h13.53c4.63,0,8.11-1.3,10.43-3.9,2.32-2.6,3.48-7,3.48-13.21v-27.05c0-6.21-1.16-10.59-3.48-13.15-2.32-2.56-5.8-3.84-10.43-3.84h-13.53v61.15ZM101.94,182.44V2.02h41.93c28.28,0,42.43,14.91,42.43,44.71v23.43c0,29.72-14.14,44.59-42.4,44.59h-13.5v67.69h-28.46Z"/>
          <path id="Fill-6" class="cls-1" d="M228.03,83.29h11.13c5.74,0,10.02-1.47,12.84-4.4,2.82-2.94,4.23-7.84,4.23-14.72v-17.74c.08-12.41-4.72-18.62-14.42-18.62h-13.78v55.49ZM199.57,182.44V2.01h42.94c14.64,0,25.34,3.4,32.07,10.2,6.74,6.8,10.11,17.25,10.11,31.35v14.22c0,18.55-6.21,30.76-18.63,36.64,12.59,5.29,18.88,18.09,18.88,38.4v28.89c0,9.21,1.01,16.12,3.03,20.72h-28.85c-1.67-5.11-2.55-12.47-2.64-22.11v-28.26c0-8.2-1.46-14.09-4.36-17.64-2.91-3.56-7.65-5.34-14.23-5.34h-9.86v73.35h-28.46Z"/>
          <polygon id="Fill-8" class="cls-1" points="303.66 182.44 332.12 182.44 332.12 2.01 303.66 2.01 303.66 182.44"/>
          <path id="Fill-10" class="cls-1" d="M381.31,156.65h16.32c4.97,0,8.68-1.32,11.13-3.96,2.44-2.64,3.67-7.23,3.67-13.78v-15.73c0-8.22-1.41-13.92-4.24-17.11-2.82-3.19-7.52-4.78-14.1-4.78h-12.78v55.36ZM381.31,75.49h11.18c5.76,0,10.05-1.47,12.89-4.4,2.84-2.94,4.26-7.8,4.26-14.59v-10.07c.08-12.41-4.74-18.62-14.48-18.62h-13.85v47.69ZM352.85,182.45V2.02h43c14.67,0,25.38,3.4,32.12,10.19,6.74,6.79,10.12,17.24,10.12,31.33v6.42c0,18.54-6.15,30.66-18.47,36.36,14.17,5.53,21.24,18.42,21.24,38.63v14.72c0,13.92-3.66,24.54-11,31.84-7.34,7.3-18.09,10.95-32.25,10.95h-44.77Z"/>
          <polygon id="Fill-11" class="cls-1" points="457.95 182.44 457.95 2.01 535.6 2.01 535.6 27.81 486.41 27.81 486.41 78.01 525.48 78.01 525.48 103.8 486.41 103.8 486.41 156.65 535.6 156.65 535.6 182.44 457.95 182.44"/>
          <polygon id="Fill-12" class="cls-1" points="0 219.18 536 219.18 536 194.13 0 194.13 0 219.18"/>
        </g>
      </g>
    </g>
  </g>
</svg>